<svg xmlns="http://www.w3.org/2000/svg" xmlns:xlink="http://www.w3.org/1999/xlink" width="140" zoomAndPan="magnify" viewBox="0 0 104.88 37.5" height="50" preserveAspectRatio="xMidYMid meet" version="1.0"><defs><g/><clipPath id="fe2bfe660e"><path d="M 0.628906 0 L 104.128906 0 L 104.128906 37.007812 L 0.628906 37.007812 Z M 0.628906 0 " clip-rule="nonzero"/></clipPath><clipPath id="cb42bff04f"><path d="M 98.3125 0 L 1.480469 0 C 1.265625 0 1.0625 0.09375 0.921875 0.253906 C 0.78125 0.414062 0.71875 0.628906 0.746094 0.839844 L 5.605469 36.167969 C 5.671875 36.648438 6.082031 37.007812 6.570312 37.007812 L 103.402344 37.007812 C 103.613281 37.007812 103.816406 36.914062 103.957031 36.753906 C 104.097656 36.59375 104.164062 36.378906 104.132812 36.167969 L 99.273438 0.839844 C 99.207031 0.359375 98.796875 0 98.3125 0 Z M 98.3125 0 " clip-rule="nonzero"/></clipPath><clipPath id="b5566d4ea1"><path d="M 83.816406 0.722656 L 92 0.722656 L 92 8 L 83.816406 8 Z M 83.816406 0.722656 " clip-rule="nonzero"/></clipPath><clipPath id="a5eec8c04d"><path d="M 91 3 L 97.136719 3 L 97.136719 9 L 91 9 Z M 91 3 " clip-rule="nonzero"/></clipPath><clipPath id="2009da0437"><path d="M 88 7 L 93 7 L 93 11.824219 L 88 11.824219 Z M 88 7 " clip-rule="nonzero"/></clipPath><clipPath id="0015d04cee"><path d="M 14.4375 6.40625 L 38.273438 6.40625 L 38.273438 30.242188 L 14.4375 30.242188 Z M 14.4375 6.40625 " clip-rule="nonzero"/></clipPath></defs><g clip-path="url(#fe2bfe660e)"><g clip-path="url(#cb42bff04f)"><path fill="#ff0000" d="M 0.628906 0 L 104.277344 0 L 104.277344 37.007812 L 0.628906 37.007812 Z M 0.628906 0 " fill-opacity="1" fill-rule="nonzero"/></g></g><g clip-path="url(#b5566d4ea1)"><path fill="#828282" d="M 87.761719 2.242188 C 87.761719 2.242188 87.980469 1.992188 88.046875 1.894531 C 88.230469 1.636719 88.472656 1.390625 88.699219 1.167969 C 88.707031 1.164062 88.855469 1.027344 88.863281 1.039062 C 88.902344 1.117188 88.726562 1.375 88.679688 1.4375 C 88.65625 1.472656 88.636719 1.507812 88.613281 1.542969 C 88.605469 1.550781 88.554688 1.617188 88.574219 1.605469 C 88.640625 1.574219 88.695312 1.496094 88.746094 1.449219 C 88.921875 1.277344 89.140625 1.105469 89.332031 0.953125 C 89.390625 0.90625 89.457031 0.867188 89.515625 0.824219 C 89.546875 0.800781 89.59375 0.722656 89.613281 0.757812 C 89.648438 0.828125 89.390625 1.0625 89.351562 1.101562 C 89.109375 1.375 88.898438 1.683594 88.671875 1.972656 C 88.578125 2.085938 88.488281 2.195312 88.402344 2.316406 C 88.375 2.351562 88.347656 2.386719 88.316406 2.417969 C 88.300781 2.433594 88.269531 2.464844 88.285156 2.464844 C 88.328125 2.464844 88.375 2.386719 88.402344 2.363281 C 88.496094 2.273438 88.582031 2.191406 88.699219 2.128906 C 88.71875 2.117188 88.828125 2.023438 88.851562 2.035156 C 88.867188 2.042969 88.835938 2.121094 88.835938 2.128906 C 88.796875 2.214844 88.730469 2.285156 88.699219 2.371094 C 88.683594 2.417969 88.761719 2.414062 88.71875 2.476562 C 88.703125 2.496094 88.5625 2.714844 88.566406 2.71875 C 88.636719 2.753906 88.792969 2.59375 88.851562 2.652344 C 88.902344 2.699219 88.761719 2.816406 88.824219 2.839844 C 88.90625 2.867188 89.113281 2.71875 89.179688 2.78125 C 89.242188 2.84375 89.085938 3.019531 89.101562 3.035156 C 89.15625 3.085938 89.292969 3.003906 89.34375 2.988281 C 89.550781 2.925781 89.78125 2.882812 89.996094 2.859375 C 90.023438 2.855469 90.140625 2.8125 90.167969 2.839844 C 90.171875 2.84375 89.972656 3.003906 89.957031 3.015625 C 89.746094 3.164062 89.527344 3.316406 89.324219 3.472656 C 89.308594 3.488281 89.125 3.636719 89.152344 3.660156 C 89.195312 3.703125 89.457031 3.675781 89.515625 3.667969 C 89.53125 3.667969 89.625 3.644531 89.640625 3.660156 C 89.652344 3.671875 89.503906 3.746094 89.523438 3.792969 C 89.566406 3.871094 89.722656 3.816406 89.765625 3.855469 C 89.789062 3.878906 89.707031 3.949219 89.738281 3.976562 C 89.820312 4.058594 90.070312 4.046875 90.179688 4.050781 C 90.421875 4.066406 90.671875 4.042969 90.917969 4.042969 C 90.96875 4.042969 91.136719 4.023438 91.175781 4.0625 C 91.179688 4.066406 91.042969 4.105469 91.03125 4.109375 C 90.949219 4.125 90.867188 4.144531 90.78125 4.15625 C 90.519531 4.1875 90.253906 4.222656 89.996094 4.285156 C 89.945312 4.296875 89.800781 4.296875 89.765625 4.332031 C 89.761719 4.335938 89.894531 4.382812 89.910156 4.386719 C 90.023438 4.421875 90.136719 4.460938 90.253906 4.480469 C 90.300781 4.492188 90.398438 4.511719 90.398438 4.511719 C 90.398438 4.511719 90.316406 4.503906 90.273438 4.511719 C 90.199219 4.519531 90.027344 4.53125 89.984375 4.613281 C 89.964844 4.652344 90.0625 4.707031 90.089844 4.714844 C 90.109375 4.722656 90.167969 4.722656 90.148438 4.722656 C 90.078125 4.722656 89.800781 4.722656 89.765625 4.789062 C 89.710938 4.898438 90.054688 5.023438 90.054688 5.023438 C 90.054688 5.023438 89.984375 5.007812 89.949219 5.003906 C 89.882812 4.996094 89.691406 4.964844 89.648438 5.042969 C 89.632812 5.078125 89.765625 5.183594 89.785156 5.199219 C 89.984375 5.375 90.195312 5.527344 90.378906 5.722656 C 90.390625 5.738281 90.546875 5.9375 90.542969 5.9375 C 90.484375 5.964844 90.296875 5.832031 90.253906 5.808594 C 90.019531 5.671875 89.789062 5.558594 89.535156 5.460938 C 89.472656 5.4375 89.40625 5.414062 89.34375 5.398438 C 89.304688 5.386719 89.226562 5.320312 89.226562 5.359375 C 89.226562 5.417969 89.429688 5.535156 89.46875 5.582031 C 89.46875 5.585938 89.53125 5.640625 89.515625 5.648438 C 89.460938 5.675781 89.269531 5.472656 89.21875 5.546875 C 89.167969 5.617188 89.308594 5.820312 89.277344 5.855469 C 89.21875 5.910156 89.066406 5.648438 88.996094 5.714844 C 88.929688 5.777344 89.199219 6.003906 89.121094 6.078125 C 89.042969 6.15625 88.8125 5.898438 88.757812 5.871094 C 88.695312 5.84375 88.621094 5.839844 88.640625 5.929688 C 88.722656 6.28125 88.914062 6.652344 89.046875 6.992188 C 89.078125 7.074219 89.207031 7.328125 89.160156 7.421875 C 89.144531 7.453125 88.945312 7.253906 88.941406 7.246094 C 88.78125 7.0625 88.640625 6.832031 88.507812 6.628906 C 88.492188 6.605469 88.34375 6.339844 88.335938 6.347656 C 88.300781 6.382812 88.417969 6.699219 88.429688 6.75 C 88.5 7.054688 88.484375 7.394531 88.441406 7.703125 C 88.429688 7.761719 88.449219 7.929688 88.402344 7.972656 C 88.375 8 88.328125 7.867188 88.324219 7.859375 C 88.257812 7.71875 88.195312 7.570312 88.144531 7.421875 C 88.019531 7.082031 87.976562 6.71875 87.789062 6.40625 C 87.746094 6.335938 87.707031 6.207031 87.652344 6.152344 C 87.601562 6.105469 87.632812 6.277344 87.632812 6.300781 C 87.640625 6.375 87.703125 6.644531 87.605469 6.695312 C 87.59375 6.699219 87.554688 6.597656 87.546875 6.582031 C 87.519531 6.511719 87.480469 6.347656 87.402344 6.3125 C 87.363281 6.292969 87.359375 6.492188 87.308594 6.515625 C 87.230469 6.554688 87.214844 6.292969 87.15625 6.320312 C 87.125 6.335938 87.105469 6.652344 87.011719 6.589844 C 86.894531 6.515625 87.019531 6.203125 86.894531 6.144531 C 86.859375 6.125 86.835938 6.210938 86.828125 6.226562 C 86.769531 6.328125 86.726562 6.433594 86.675781 6.535156 C 86.484375 6.90625 86.21875 7.269531 85.917969 7.5625 C 85.890625 7.585938 85.628906 7.835938 85.617188 7.824219 C 85.570312 7.773438 85.679688 7.578125 85.695312 7.535156 C 85.824219 7.183594 85.914062 6.820312 86.039062 6.46875 C 86.050781 6.445312 86.195312 6.101562 86.164062 6.085938 C 86.082031 6.046875 85.882812 6.28125 85.800781 6.320312 C 85.789062 6.328125 85.691406 6.375 85.675781 6.359375 C 85.628906 6.3125 85.8125 6.046875 85.839844 5.992188 C 85.859375 5.953125 85.730469 6.035156 85.695312 6.003906 C 85.671875 5.980469 85.714844 5.917969 85.722656 5.902344 C 85.777344 5.777344 85.886719 5.570312 85.648438 5.621094 C 85.242188 5.707031 84.835938 5.890625 84.449219 6.03125 C 84.320312 6.078125 84.199219 6.117188 84.0625 6.132812 C 84.011719 6.140625 83.960938 6.152344 83.910156 6.152344 C 83.882812 6.152344 83.816406 6.171875 83.832031 6.152344 C 84.003906 5.984375 84.308594 5.921875 84.515625 5.796875 C 84.730469 5.667969 84.921875 5.476562 85.089844 5.292969 C 85.101562 5.28125 85.253906 5.078125 85.234375 5.070312 C 85.15625 5.03125 84.964844 5.101562 84.890625 5.125 C 84.878906 5.128906 84.773438 5.160156 84.773438 5.171875 C 84.773438 5.175781 84.882812 5.128906 84.890625 5.125 C 84.921875 5.105469 85.15625 4.925781 85.089844 4.863281 C 85.058594 4.832031 84.785156 4.84375 84.785156 4.816406 C 84.785156 4.792969 84.96875 4.664062 84.996094 4.632812 C 85.015625 4.601562 85.09375 4.503906 85.070312 4.464844 C 85.058594 4.4375 84.996094 4.425781 84.996094 4.425781 C 84.996094 4.425781 85.105469 4.40625 85.148438 4.378906 C 85.207031 4.339844 85.265625 4.257812 85.28125 4.191406 C 85.300781 4.121094 85.230469 4.101562 85.175781 4.082031 C 85.171875 4.078125 85.089844 4.0625 85.089844 4.070312 C 85.089844 4.121094 85.183594 4.011719 85.1875 3.988281 C 85.207031 3.894531 85.140625 3.789062 85.089844 3.714844 C 84.933594 3.496094 84.707031 3.296875 84.523438 3.089844 C 84.40625 2.957031 84.324219 2.808594 84.21875 2.671875 C 84.210938 2.664062 84.128906 2.5625 84.148438 2.550781 C 84.246094 2.503906 84.433594 2.707031 84.496094 2.746094 C 84.703125 2.875 84.984375 3.027344 85.234375 3.054688 L 85.3125 3.054688 C 85.570312 3.054688 85.292969 2.839844 85.359375 2.773438 C 85.402344 2.730469 85.535156 2.851562 85.597656 2.828125 C 85.742188 2.785156 85.53125 2.488281 85.53125 2.429688 C 85.53125 2.425781 85.617188 2.476562 85.628906 2.484375 C 85.660156 2.507812 85.8125 2.605469 85.859375 2.558594 C 85.929688 2.488281 85.855469 2.269531 85.839844 2.195312 C 85.765625 1.878906 85.636719 1.574219 85.609375 1.253906 C 85.601562 1.152344 85.597656 1.054688 85.597656 0.953125 C 85.597656 0.921875 85.566406 0.859375 85.597656 0.859375 C 85.671875 0.859375 85.800781 1.125 85.828125 1.167969 C 86.019531 1.472656 86.160156 1.785156 86.40625 2.054688 C 86.425781 2.078125 86.449219 2.097656 86.472656 2.121094 C 86.707031 2.351562 86.574219 1.847656 86.710938 1.8125 C 86.847656 1.78125 86.929688 2.023438 87.046875 2.0625 C 87.148438 2.097656 87.144531 1.875 87.222656 1.847656 C 87.277344 1.832031 87.371094 1.976562 87.433594 1.988281 C 87.570312 2.023438 87.703125 1.746094 87.730469 1.632812 " fill-opacity="1" fill-rule="evenodd"/></g><path fill="#828282" d="M 86.023438 3.347656 C 85.90625 3.414062 85.816406 3.527344 85.699219 3.597656 C 85.433594 3.757812 85.109375 3.847656 84.816406 3.953125 C 84.6875 4.003906 84.558594 4.050781 84.429688 4.101562 C 84.378906 4.117188 84.324219 4.132812 84.273438 4.152344 C 84.246094 4.160156 84.191406 4.1875 84.191406 4.1875 C 84.191406 4.1875 84.234375 4.207031 84.257812 4.214844 C 84.3125 4.234375 84.371094 4.246094 84.429688 4.261719 C 84.59375 4.300781 84.769531 4.28125 84.9375 4.28125 C 85.503906 4.28125 86.09375 4.285156 86.613281 4.035156 " fill-opacity="1" fill-rule="evenodd"/><path fill="#828282" d="M 85.921875 3.675781 C 85.871094 3.695312 85.792969 3.847656 85.753906 3.890625 C 85.640625 4.003906 85.476562 4.105469 85.332031 4.179688 C 85.152344 4.277344 84.976562 4.382812 84.78125 4.457031 C 84.625 4.515625 84.460938 4.550781 84.300781 4.609375 C 84.253906 4.628906 84.203125 4.652344 84.152344 4.667969 C 84.121094 4.675781 84.039062 4.675781 84.0625 4.695312 C 84.082031 4.714844 84.207031 4.710938 84.226562 4.710938 C 84.398438 4.710938 84.566406 4.695312 84.734375 4.6875 C 85.191406 4.667969 85.664062 4.636719 86.050781 4.367188 C 86.195312 4.269531 86.359375 4.171875 86.402344 4 " fill-opacity="1" fill-rule="evenodd"/><path fill="#828282" d="M 85.855469 4.199219 C 85.78125 4.246094 85.730469 4.339844 85.679688 4.40625 C 85.570312 4.535156 85.433594 4.675781 85.296875 4.777344 C 85.164062 4.875 85.03125 4.972656 84.886719 5.050781 C 84.730469 5.140625 84.570312 5.203125 84.429688 5.308594 C 84.425781 5.308594 84.316406 5.394531 84.316406 5.394531 C 84.421875 5.496094 84.757812 5.363281 84.863281 5.328125 C 85.199219 5.21875 85.53125 5.082031 85.835938 4.898438 C 86.015625 4.792969 86.222656 4.675781 86.320312 4.484375 " fill-opacity="1" fill-rule="evenodd"/><g clip-path="url(#a5eec8c04d)"><path fill="#828282" d="M 94.453125 4.214844 C 94.453125 4.214844 94.625 4.019531 94.675781 3.945312 C 94.820312 3.742188 95.007812 3.546875 95.1875 3.371094 C 95.191406 3.367188 95.3125 3.261719 95.316406 3.269531 C 95.347656 3.332031 95.210938 3.535156 95.171875 3.585938 C 95.152344 3.609375 95.140625 3.636719 95.121094 3.664062 C 95.117188 3.671875 95.078125 3.722656 95.089844 3.714844 C 95.140625 3.691406 95.1875 3.628906 95.226562 3.59375 C 95.363281 3.460938 95.535156 3.320312 95.683594 3.203125 C 95.730469 3.167969 95.78125 3.136719 95.828125 3.101562 C 95.851562 3.082031 95.890625 3.023438 95.902344 3.050781 C 95.933594 3.109375 95.730469 3.289062 95.699219 3.320312 C 95.507812 3.535156 95.34375 3.777344 95.164062 4.003906 C 95.09375 4.09375 95.023438 4.179688 94.957031 4.273438 C 94.933594 4.300781 94.914062 4.328125 94.886719 4.355469 C 94.878906 4.363281 94.851562 4.390625 94.863281 4.390625 C 94.898438 4.390625 94.933594 4.328125 94.957031 4.308594 C 95.027344 4.238281 95.097656 4.175781 95.1875 4.125 C 95.203125 4.117188 95.289062 4.042969 95.308594 4.054688 C 95.320312 4.058594 95.296875 4.121094 95.292969 4.125 C 95.265625 4.191406 95.210938 4.25 95.1875 4.316406 C 95.175781 4.355469 95.238281 4.347656 95.203125 4.398438 C 95.191406 4.414062 95.078125 4.585938 95.082031 4.589844 C 95.140625 4.613281 95.261719 4.492188 95.308594 4.535156 C 95.347656 4.574219 95.238281 4.667969 95.285156 4.683594 C 95.351562 4.703125 95.511719 4.589844 95.566406 4.640625 C 95.613281 4.6875 95.492188 4.824219 95.503906 4.835938 C 95.546875 4.878906 95.65625 4.8125 95.691406 4.800781 C 95.855469 4.753906 96.035156 4.71875 96.203125 4.699219 C 96.226562 4.695312 96.320312 4.664062 96.339844 4.683594 C 96.34375 4.6875 96.1875 4.8125 96.175781 4.820312 C 96.007812 4.941406 95.839844 5.054688 95.679688 5.179688 C 95.664062 5.191406 95.523438 5.308594 95.542969 5.328125 C 95.578125 5.363281 95.785156 5.339844 95.828125 5.335938 C 95.839844 5.332031 95.914062 5.316406 95.925781 5.328125 C 95.933594 5.335938 95.816406 5.394531 95.835938 5.429688 C 95.867188 5.492188 95.992188 5.449219 96.023438 5.480469 C 96.042969 5.5 95.980469 5.554688 96 5.578125 C 96.066406 5.640625 96.265625 5.628906 96.347656 5.636719 C 96.539062 5.648438 96.734375 5.628906 96.925781 5.628906 C 96.96875 5.628906 97.097656 5.609375 97.132812 5.640625 C 97.132812 5.644531 97.027344 5.675781 97.019531 5.679688 C 96.953125 5.691406 96.890625 5.707031 96.820312 5.714844 C 96.617188 5.742188 96.40625 5.769531 96.203125 5.816406 C 96.167969 5.828125 96.054688 5.828125 96.023438 5.855469 C 96.019531 5.859375 96.125 5.894531 96.136719 5.898438 C 96.226562 5.925781 96.316406 5.953125 96.40625 5.972656 C 96.445312 5.980469 96.519531 5.992188 96.519531 5.992188 C 96.519531 5.992188 96.457031 5.988281 96.421875 5.992188 C 96.363281 6 96.230469 6.011719 96.199219 6.074219 C 96.183594 6.105469 96.257812 6.148438 96.28125 6.15625 C 96.292969 6.160156 96.339844 6.160156 96.324219 6.160156 C 96.269531 6.160156 96.050781 6.160156 96.023438 6.214844 C 95.980469 6.296875 96.25 6.394531 96.25 6.394531 C 96.25 6.394531 96.195312 6.386719 96.167969 6.382812 C 96.117188 6.375 95.964844 6.351562 95.933594 6.410156 C 95.917969 6.441406 96.023438 6.523438 96.039062 6.535156 C 96.195312 6.671875 96.363281 6.792969 96.507812 6.945312 C 96.515625 6.957031 96.636719 7.113281 96.632812 7.113281 C 96.589844 7.136719 96.441406 7.03125 96.40625 7.011719 C 96.222656 6.902344 96.042969 6.816406 95.84375 6.742188 C 95.792969 6.722656 95.742188 6.703125 95.691406 6.6875 C 95.664062 6.679688 95.601562 6.628906 95.601562 6.660156 C 95.601562 6.703125 95.761719 6.796875 95.789062 6.835938 C 95.792969 6.835938 95.839844 6.878906 95.828125 6.886719 C 95.785156 6.90625 95.636719 6.746094 95.59375 6.804688 C 95.554688 6.863281 95.667969 7.023438 95.640625 7.046875 C 95.597656 7.089844 95.476562 6.886719 95.421875 6.9375 C 95.371094 6.988281 95.582031 7.164062 95.519531 7.222656 C 95.457031 7.285156 95.277344 7.082031 95.234375 7.0625 C 95.183594 7.039062 95.128906 7.035156 95.144531 7.105469 C 95.207031 7.382812 95.355469 7.675781 95.460938 7.941406 C 95.484375 8.003906 95.585938 8.203125 95.550781 8.277344 C 95.539062 8.300781 95.382812 8.144531 95.375 8.140625 C 95.253906 7.996094 95.140625 7.8125 95.039062 7.65625 C 95.027344 7.636719 94.910156 7.429688 94.902344 7.4375 C 94.875 7.460938 94.96875 7.710938 94.976562 7.75 C 95.03125 7.988281 95.019531 8.257812 94.984375 8.496094 C 94.976562 8.546875 94.992188 8.675781 94.957031 8.710938 C 94.933594 8.730469 94.898438 8.625 94.894531 8.621094 C 94.84375 8.511719 94.792969 8.394531 94.75 8.277344 C 94.65625 8.011719 94.621094 7.726562 94.472656 7.480469 C 94.441406 7.425781 94.410156 7.324219 94.367188 7.28125 C 94.328125 7.242188 94.351562 7.382812 94.351562 7.398438 C 94.355469 7.457031 94.410156 7.667969 94.332031 7.707031 C 94.320312 7.710938 94.289062 7.628906 94.285156 7.617188 C 94.265625 7.5625 94.234375 7.4375 94.171875 7.40625 C 94.140625 7.390625 94.136719 7.546875 94.097656 7.566406 C 94.035156 7.597656 94.023438 7.390625 93.976562 7.414062 C 93.953125 7.425781 93.9375 7.675781 93.863281 7.625 C 93.773438 7.566406 93.871094 7.320312 93.773438 7.273438 C 93.746094 7.261719 93.726562 7.328125 93.71875 7.339844 C 93.675781 7.417969 93.640625 7.503906 93.601562 7.582031 C 93.449219 7.871094 93.242188 8.15625 93.003906 8.386719 C 92.988281 8.40625 92.78125 8.601562 92.773438 8.59375 C 92.734375 8.554688 92.820312 8.398438 92.832031 8.367188 C 92.933594 8.089844 93.003906 7.804688 93.101562 7.53125 C 93.109375 7.511719 93.226562 7.242188 93.199219 7.230469 C 93.132812 7.199219 92.976562 7.382812 92.914062 7.414062 C 92.90625 7.417969 92.828125 7.457031 92.816406 7.441406 C 92.78125 7.40625 92.925781 7.199219 92.945312 7.15625 C 92.960938 7.125 92.859375 7.191406 92.832031 7.164062 C 92.8125 7.148438 92.847656 7.097656 92.855469 7.085938 C 92.898438 6.988281 92.980469 6.824219 92.792969 6.863281 C 92.476562 6.933594 92.15625 7.078125 91.851562 7.1875 C 91.753906 7.222656 91.65625 7.253906 91.550781 7.265625 C 91.511719 7.273438 91.472656 7.28125 91.433594 7.28125 C 91.410156 7.28125 91.359375 7.296875 91.371094 7.28125 C 91.507812 7.152344 91.746094 7.101562 91.90625 7.003906 C 92.074219 6.902344 92.226562 6.75 92.359375 6.609375 C 92.367188 6.597656 92.484375 6.441406 92.472656 6.433594 C 92.410156 6.402344 92.261719 6.457031 92.199219 6.476562 C 92.191406 6.480469 92.109375 6.503906 92.109375 6.511719 C 92.109375 6.515625 92.195312 6.480469 92.199219 6.476562 C 92.226562 6.460938 92.40625 6.320312 92.359375 6.273438 C 92.332031 6.246094 92.117188 6.253906 92.117188 6.234375 C 92.117188 6.214844 92.261719 6.117188 92.28125 6.089844 C 92.300781 6.066406 92.359375 5.988281 92.34375 5.957031 C 92.332031 5.9375 92.28125 5.929688 92.28125 5.929688 C 92.28125 5.929688 92.367188 5.914062 92.402344 5.890625 C 92.449219 5.859375 92.496094 5.796875 92.507812 5.746094 C 92.523438 5.691406 92.46875 5.671875 92.425781 5.65625 C 92.421875 5.65625 92.359375 5.644531 92.359375 5.648438 C 92.359375 5.691406 92.429688 5.601562 92.433594 5.582031 C 92.449219 5.511719 92.398438 5.425781 92.359375 5.371094 C 92.234375 5.199219 92.054688 5.042969 91.914062 4.878906 C 91.820312 4.773438 91.757812 4.660156 91.671875 4.550781 C 91.667969 4.546875 91.601562 4.464844 91.621094 4.457031 C 91.695312 4.417969 91.84375 4.578125 91.890625 4.609375 C 92.054688 4.710938 92.273438 4.832031 92.472656 4.851562 L 92.53125 4.851562 C 92.734375 4.851562 92.515625 4.683594 92.570312 4.632812 C 92.601562 4.597656 92.707031 4.691406 92.757812 4.675781 C 92.867188 4.640625 92.703125 4.40625 92.703125 4.359375 C 92.703125 4.359375 92.773438 4.398438 92.78125 4.40625 C 92.804688 4.421875 92.921875 4.5 92.960938 4.464844 C 93.015625 4.40625 92.960938 4.238281 92.945312 4.179688 C 92.886719 3.929688 92.785156 3.691406 92.765625 3.4375 C 92.757812 3.359375 92.757812 3.28125 92.757812 3.203125 C 92.757812 3.179688 92.730469 3.132812 92.757812 3.132812 C 92.8125 3.132812 92.914062 3.335938 92.9375 3.371094 C 93.085938 3.613281 93.195312 3.855469 93.390625 4.066406 C 93.40625 4.085938 93.425781 4.101562 93.441406 4.121094 C 93.628906 4.300781 93.519531 3.90625 93.628906 3.878906 C 93.734375 3.851562 93.800781 4.046875 93.894531 4.074219 C 93.972656 4.101562 93.96875 3.925781 94.027344 3.90625 C 94.074219 3.890625 94.148438 4.003906 94.195312 4.015625 C 94.304688 4.042969 94.40625 3.828125 94.429688 3.738281 " fill-opacity="1" fill-rule="evenodd"/></g><path fill="#828282" d="M 93.089844 5.082031 C 92.996094 5.132812 92.929688 5.222656 92.835938 5.277344 C 92.625 5.402344 92.371094 5.476562 92.144531 5.558594 C 92.042969 5.59375 91.941406 5.636719 91.839844 5.671875 C 91.796875 5.6875 91.757812 5.695312 91.714844 5.710938 C 91.695312 5.71875 91.652344 5.742188 91.652344 5.742188 C 91.652344 5.742188 91.6875 5.757812 91.703125 5.761719 C 91.75 5.777344 91.792969 5.785156 91.839844 5.796875 C 91.96875 5.828125 92.105469 5.816406 92.238281 5.816406 C 92.679688 5.816406 93.144531 5.816406 93.550781 5.621094 " fill-opacity="1" fill-rule="evenodd"/><path fill="#828282" d="M 93.011719 5.339844 C 92.96875 5.355469 92.910156 5.472656 92.878906 5.507812 C 92.789062 5.597656 92.660156 5.675781 92.546875 5.734375 C 92.40625 5.8125 92.269531 5.894531 92.113281 5.953125 C 91.992188 5.996094 91.863281 6.023438 91.738281 6.070312 C 91.703125 6.085938 91.660156 6.105469 91.621094 6.117188 C 91.597656 6.125 91.535156 6.121094 91.550781 6.140625 C 91.566406 6.152344 91.664062 6.152344 91.679688 6.152344 C 91.816406 6.152344 91.945312 6.140625 92.078125 6.132812 C 92.4375 6.117188 92.808594 6.09375 93.113281 5.882812 C 93.226562 5.804688 93.351562 5.730469 93.386719 5.59375 " fill-opacity="1" fill-rule="evenodd"/><path fill="#828282" d="M 92.957031 5.75 C 92.898438 5.789062 92.859375 5.859375 92.820312 5.910156 C 92.734375 6.015625 92.628906 6.125 92.519531 6.203125 C 92.414062 6.277344 92.308594 6.355469 92.195312 6.417969 C 92.074219 6.488281 91.949219 6.539062 91.839844 6.617188 C 91.835938 6.621094 91.75 6.6875 91.75 6.6875 C 91.835938 6.769531 92.097656 6.664062 92.179688 6.636719 C 92.445312 6.550781 92.703125 6.441406 92.941406 6.300781 C 93.082031 6.214844 93.246094 6.125 93.324219 5.972656 " fill-opacity="1" fill-rule="evenodd"/><g clip-path="url(#2009da0437)"><path fill="#828282" d="M 90.203125 8.609375 C 90.203125 8.609375 90.324219 8.472656 90.363281 8.417969 C 90.464844 8.273438 90.601562 8.136719 90.726562 8.011719 C 90.730469 8.007812 90.816406 7.933594 90.820312 7.9375 C 90.839844 7.984375 90.742188 8.128906 90.714844 8.164062 C 90.703125 8.183594 90.691406 8.203125 90.679688 8.21875 C 90.675781 8.226562 90.648438 8.261719 90.65625 8.257812 C 90.695312 8.238281 90.726562 8.195312 90.753906 8.167969 C 90.851562 8.074219 90.972656 7.976562 91.082031 7.890625 C 91.113281 7.867188 91.148438 7.84375 91.183594 7.820312 C 91.199219 7.808594 91.226562 7.765625 91.234375 7.78125 C 91.257812 7.824219 91.113281 7.953125 91.089844 7.976562 C 90.957031 8.128906 90.839844 8.300781 90.710938 8.460938 C 90.660156 8.523438 90.609375 8.585938 90.5625 8.652344 C 90.546875 8.671875 90.53125 8.691406 90.511719 8.710938 C 90.507812 8.71875 90.488281 8.734375 90.496094 8.734375 C 90.519531 8.734375 90.546875 8.691406 90.5625 8.679688 C 90.613281 8.628906 90.664062 8.582031 90.726562 8.546875 C 90.738281 8.542969 90.800781 8.488281 90.8125 8.496094 C 90.820312 8.5 90.804688 8.542969 90.800781 8.546875 C 90.78125 8.59375 90.742188 8.636719 90.726562 8.683594 C 90.71875 8.710938 90.761719 8.707031 90.738281 8.742188 C 90.730469 8.753906 90.648438 8.875 90.652344 8.875 C 90.691406 8.894531 90.78125 8.808594 90.8125 8.839844 C 90.839844 8.867188 90.761719 8.933594 90.796875 8.945312 C 90.84375 8.960938 90.957031 8.878906 90.996094 8.914062 C 91.03125 8.945312 90.945312 9.046875 90.953125 9.054688 C 90.980469 9.082031 91.058594 9.035156 91.085938 9.027344 C 91.203125 8.992188 91.332031 8.96875 91.449219 8.953125 C 91.464844 8.953125 91.53125 8.929688 91.546875 8.945312 C 91.550781 8.949219 91.4375 9.039062 91.429688 9.042969 C 91.3125 9.125 91.191406 9.210938 91.074219 9.296875 C 91.066406 9.304688 90.964844 9.390625 90.980469 9.402344 C 91.003906 9.425781 91.152344 9.410156 91.183594 9.40625 C 91.191406 9.40625 91.242188 9.394531 91.253906 9.402344 C 91.257812 9.410156 91.175781 9.449219 91.1875 9.476562 C 91.210938 9.519531 91.296875 9.488281 91.320312 9.511719 C 91.335938 9.523438 91.289062 9.566406 91.304688 9.578125 C 91.351562 9.625 91.492188 9.617188 91.550781 9.621094 C 91.6875 9.628906 91.828125 9.617188 91.964844 9.617188 C 91.992188 9.617188 92.085938 9.605469 92.109375 9.625 C 92.113281 9.628906 92.035156 9.652344 92.027344 9.652344 C 91.980469 9.660156 91.9375 9.671875 91.890625 9.679688 C 91.742188 9.695312 91.59375 9.714844 91.449219 9.75 C 91.421875 9.757812 91.34375 9.757812 91.320312 9.777344 C 91.320312 9.78125 91.394531 9.804688 91.402344 9.808594 C 91.464844 9.828125 91.53125 9.847656 91.59375 9.859375 C 91.621094 9.867188 91.675781 9.875 91.675781 9.875 C 91.675781 9.875 91.628906 9.875 91.605469 9.875 C 91.5625 9.882812 91.46875 9.890625 91.445312 9.933594 C 91.433594 9.953125 91.488281 9.984375 91.503906 9.992188 C 91.515625 9.996094 91.546875 9.996094 91.535156 9.996094 C 91.496094 9.996094 91.339844 9.996094 91.320312 10.03125 C 91.289062 10.09375 91.484375 10.164062 91.484375 10.164062 C 91.484375 10.164062 91.445312 10.15625 91.421875 10.152344 C 91.386719 10.148438 91.28125 10.128906 91.257812 10.171875 C 91.246094 10.195312 91.320312 10.253906 91.332031 10.261719 C 91.445312 10.359375 91.5625 10.445312 91.664062 10.554688 C 91.671875 10.5625 91.757812 10.671875 91.753906 10.671875 C 91.722656 10.6875 91.617188 10.613281 91.59375 10.601562 C 91.464844 10.523438 91.335938 10.460938 91.191406 10.40625 C 91.160156 10.394531 91.121094 10.382812 91.085938 10.371094 C 91.066406 10.363281 91.023438 10.328125 91.023438 10.351562 C 91.023438 10.382812 91.132812 10.449219 91.15625 10.476562 C 91.15625 10.476562 91.191406 10.507812 91.183594 10.511719 C 91.152344 10.527344 91.046875 10.414062 91.015625 10.453125 C 90.988281 10.496094 91.066406 10.609375 91.046875 10.625 C 91.015625 10.65625 90.933594 10.511719 90.894531 10.546875 C 90.855469 10.585938 91.007812 10.710938 90.964844 10.75 C 90.917969 10.796875 90.789062 10.652344 90.757812 10.636719 C 90.726562 10.621094 90.683594 10.617188 90.695312 10.667969 C 90.742188 10.863281 90.847656 11.074219 90.921875 11.261719 C 90.9375 11.308594 91.011719 11.449219 90.984375 11.5 C 90.976562 11.519531 90.863281 11.40625 90.863281 11.402344 C 90.773438 11.300781 90.695312 11.171875 90.621094 11.058594 C 90.613281 11.046875 90.53125 10.898438 90.523438 10.902344 C 90.503906 10.921875 90.570312 11.097656 90.578125 11.125 C 90.617188 11.296875 90.609375 11.484375 90.582031 11.65625 C 90.578125 11.691406 90.585938 11.785156 90.5625 11.808594 C 90.546875 11.824219 90.519531 11.75 90.519531 11.746094 C 90.480469 11.667969 90.445312 11.582031 90.417969 11.5 C 90.347656 11.3125 90.324219 11.109375 90.21875 10.933594 C 90.195312 10.894531 90.175781 10.824219 90.144531 10.792969 C 90.117188 10.765625 90.132812 10.863281 90.132812 10.875 C 90.136719 10.917969 90.171875 11.066406 90.117188 11.09375 C 90.109375 11.097656 90.089844 11.042969 90.085938 11.03125 C 90.070312 10.992188 90.046875 10.902344 90.003906 10.882812 C 89.980469 10.871094 89.980469 10.980469 89.949219 10.996094 C 89.90625 11.019531 89.898438 10.871094 89.867188 10.886719 C 89.847656 10.894531 89.839844 11.074219 89.785156 11.039062 C 89.71875 10.996094 89.789062 10.820312 89.722656 10.789062 C 89.699219 10.777344 89.6875 10.824219 89.683594 10.835938 C 89.652344 10.890625 89.625 10.949219 89.597656 11.007812 C 89.492188 11.214844 89.34375 11.417969 89.175781 11.578125 C 89.160156 11.59375 89.015625 11.730469 89.007812 11.726562 C 88.980469 11.699219 89.042969 11.585938 89.050781 11.5625 C 89.121094 11.367188 89.171875 11.164062 89.242188 10.96875 C 89.25 10.957031 89.332031 10.765625 89.3125 10.757812 C 89.265625 10.734375 89.15625 10.863281 89.109375 10.886719 C 89.101562 10.890625 89.050781 10.917969 89.039062 10.90625 C 89.015625 10.882812 89.117188 10.734375 89.132812 10.703125 C 89.144531 10.679688 89.070312 10.726562 89.050781 10.710938 C 89.039062 10.695312 89.0625 10.664062 89.066406 10.652344 C 89.097656 10.582031 89.15625 10.46875 89.023438 10.496094 C 88.800781 10.546875 88.570312 10.648438 88.355469 10.726562 C 88.285156 10.75 88.214844 10.773438 88.140625 10.78125 C 88.113281 10.785156 88.085938 10.792969 88.054688 10.792969 C 88.039062 10.792969 88.003906 10.804688 88.011719 10.792969 C 88.109375 10.699219 88.277344 10.664062 88.394531 10.59375 C 88.511719 10.523438 88.621094 10.414062 88.714844 10.3125 C 88.71875 10.308594 88.804688 10.195312 88.792969 10.1875 C 88.75 10.167969 88.644531 10.207031 88.601562 10.21875 C 88.597656 10.222656 88.539062 10.238281 88.539062 10.246094 C 88.539062 10.246094 88.597656 10.222656 88.601562 10.21875 C 88.621094 10.207031 88.75 10.109375 88.714844 10.074219 C 88.695312 10.054688 88.542969 10.0625 88.542969 10.046875 C 88.542969 10.035156 88.644531 9.964844 88.660156 9.945312 C 88.671875 9.929688 88.714844 9.875 88.703125 9.851562 C 88.695312 9.835938 88.660156 9.828125 88.660156 9.828125 C 88.660156 9.828125 88.722656 9.820312 88.746094 9.804688 C 88.777344 9.78125 88.8125 9.738281 88.820312 9.699219 C 88.832031 9.660156 88.792969 9.648438 88.761719 9.636719 C 88.761719 9.636719 88.714844 9.628906 88.714844 9.632812 C 88.714844 9.660156 88.765625 9.597656 88.765625 9.585938 C 88.777344 9.535156 88.742188 9.472656 88.714844 9.433594 C 88.625 9.3125 88.5 9.199219 88.398438 9.085938 C 88.332031 9.011719 88.285156 8.929688 88.226562 8.851562 C 88.222656 8.847656 88.175781 8.789062 88.1875 8.78125 C 88.242188 8.757812 88.347656 8.871094 88.382812 8.890625 C 88.496094 8.964844 88.65625 9.050781 88.792969 9.0625 L 88.835938 9.0625 C 88.980469 9.0625 88.828125 8.945312 88.863281 8.90625 C 88.886719 8.886719 88.960938 8.949219 88.996094 8.9375 C 89.078125 8.914062 88.960938 8.75 88.960938 8.714844 C 88.960938 8.714844 89.007812 8.742188 89.015625 8.746094 C 89.03125 8.757812 89.117188 8.8125 89.140625 8.789062 C 89.183594 8.75 89.140625 8.628906 89.132812 8.585938 C 89.089844 8.410156 89.019531 8.238281 89.003906 8.058594 C 89 8.003906 88.996094 7.949219 88.996094 7.890625 C 88.996094 7.875 88.980469 7.839844 88.996094 7.839844 C 89.039062 7.839844 89.109375 7.988281 89.125 8.011719 C 89.230469 8.183594 89.308594 8.355469 89.449219 8.507812 C 89.460938 8.519531 89.472656 8.53125 89.484375 8.542969 C 89.617188 8.671875 89.542969 8.390625 89.617188 8.371094 C 89.691406 8.351562 89.738281 8.492188 89.804688 8.511719 C 89.863281 8.53125 89.859375 8.40625 89.902344 8.390625 C 89.933594 8.382812 89.988281 8.460938 90.019531 8.46875 C 90.097656 8.488281 90.171875 8.335938 90.1875 8.273438 " fill-opacity="1" fill-rule="evenodd"/></g><path fill="#828282" d="M 89.234375 9.230469 C 89.167969 9.265625 89.121094 9.328125 89.054688 9.367188 C 88.90625 9.457031 88.726562 9.507812 88.5625 9.566406 C 88.488281 9.59375 88.417969 9.621094 88.34375 9.648438 C 88.316406 9.660156 88.285156 9.664062 88.257812 9.675781 C 88.242188 9.683594 88.210938 9.695312 88.210938 9.695312 C 88.210938 9.695312 88.234375 9.707031 88.25 9.710938 C 88.28125 9.722656 88.3125 9.730469 88.34375 9.738281 C 88.4375 9.757812 88.535156 9.75 88.628906 9.75 C 88.945312 9.75 89.273438 9.75 89.5625 9.613281 " fill-opacity="1" fill-rule="evenodd"/><path fill="#828282" d="M 89.179688 9.410156 C 89.148438 9.421875 89.105469 9.507812 89.082031 9.53125 C 89.019531 9.59375 88.929688 9.652344 88.851562 9.691406 C 88.746094 9.746094 88.648438 9.804688 88.542969 9.847656 C 88.453125 9.878906 88.363281 9.898438 88.273438 9.933594 C 88.246094 9.941406 88.21875 9.957031 88.191406 9.964844 C 88.171875 9.96875 88.128906 9.96875 88.140625 9.980469 C 88.152344 9.992188 88.21875 9.988281 88.230469 9.988281 C 88.328125 9.988281 88.421875 9.980469 88.515625 9.976562 C 88.769531 9.964844 89.035156 9.949219 89.25 9.796875 C 89.332031 9.742188 89.421875 9.6875 89.445312 9.589844 " fill-opacity="1" fill-rule="evenodd"/><path fill="#828282" d="M 89.140625 9.703125 C 89.097656 9.730469 89.070312 9.78125 89.042969 9.816406 C 88.980469 9.890625 88.90625 9.96875 88.828125 10.023438 C 88.753906 10.078125 88.679688 10.132812 88.597656 10.179688 C 88.511719 10.226562 88.425781 10.261719 88.34375 10.320312 C 88.34375 10.324219 88.28125 10.371094 88.28125 10.371094 C 88.339844 10.425781 88.527344 10.351562 88.585938 10.332031 C 88.773438 10.273438 88.960938 10.195312 89.128906 10.09375 C 89.230469 10.035156 89.347656 9.96875 89.398438 9.863281 " fill-opacity="1" fill-rule="evenodd"/><path fill="#000000" d="M 88.59375 4.265625 C 88.59375 4.433594 88.5625 4.597656 88.496094 4.757812 C 88.425781 4.914062 88.332031 5.054688 88.207031 5.171875 C 88.082031 5.292969 87.941406 5.386719 87.777344 5.453125 C 87.617188 5.515625 87.449219 5.550781 87.273438 5.550781 C 87.097656 5.550781 86.929688 5.515625 86.765625 5.453125 C 86.605469 5.386719 86.460938 5.292969 86.335938 5.171875 C 86.214844 5.054688 86.117188 4.914062 86.050781 4.757812 C 85.984375 4.597656 85.949219 4.433594 85.949219 4.265625 C 85.949219 4.09375 85.984375 3.929688 86.050781 3.773438 C 86.117188 3.613281 86.214844 3.476562 86.335938 3.355469 C 86.460938 3.234375 86.605469 3.140625 86.765625 3.074219 C 86.929688 3.011719 87.097656 2.976562 87.273438 2.976562 C 87.449219 2.976562 87.617188 3.011719 87.777344 3.074219 C 87.941406 3.140625 88.082031 3.234375 88.207031 3.355469 C 88.332031 3.476562 88.425781 3.613281 88.496094 3.773438 C 88.5625 3.929688 88.59375 4.09375 88.59375 4.265625 Z M 88.59375 4.265625 " fill-opacity="1" fill-rule="nonzero"/><path fill="#000000" d="M 95.105469 5.800781 C 95.105469 5.933594 95.078125 6.0625 95.027344 6.1875 C 94.976562 6.308594 94.898438 6.417969 94.800781 6.515625 C 94.707031 6.609375 94.59375 6.679688 94.464844 6.734375 C 94.339844 6.785156 94.207031 6.808594 94.070312 6.808594 C 93.929688 6.808594 93.800781 6.785156 93.671875 6.734375 C 93.546875 6.679688 93.433594 6.609375 93.335938 6.515625 C 93.238281 6.417969 93.164062 6.308594 93.109375 6.1875 C 93.058594 6.0625 93.03125 5.933594 93.03125 5.800781 C 93.03125 5.667969 93.058594 5.539062 93.109375 5.414062 C 93.164062 5.292969 93.238281 5.183594 93.335938 5.085938 C 93.433594 4.992188 93.546875 4.921875 93.671875 4.867188 C 93.800781 4.816406 93.929688 4.792969 94.070312 4.792969 C 94.207031 4.792969 94.339844 4.816406 94.464844 4.867188 C 94.59375 4.921875 94.707031 4.992188 94.800781 5.085938 C 94.898438 5.183594 94.976562 5.292969 95.027344 5.414062 C 95.078125 5.539062 95.105469 5.667969 95.105469 5.800781 Z M 95.105469 5.800781 " fill-opacity="1" fill-rule="nonzero"/><path fill="#000000" d="M 90.667969 9.738281 C 90.667969 9.9375 90.597656 10.105469 90.453125 10.246094 C 90.308594 10.386719 90.136719 10.457031 89.933594 10.457031 C 89.726562 10.457031 89.554688 10.386719 89.410156 10.246094 C 89.265625 10.105469 89.195312 9.9375 89.195312 9.738281 C 89.195312 9.542969 89.265625 9.371094 89.410156 9.230469 C 89.554688 9.09375 89.726562 9.023438 89.933594 9.023438 C 90.136719 9.023438 90.308594 9.09375 90.453125 9.230469 C 90.597656 9.371094 90.667969 9.542969 90.667969 9.738281 Z M 90.667969 9.738281 " fill-opacity="1" fill-rule="nonzero"/><g clip-path="url(#0015d04cee)"><path fill="#ffffff" d="M 26.375 6.410156 C 20.082031 6.410156 14.925781 11.304688 14.4375 17.53125 L 20.859375 20.210938 C 21.402344 19.832031 22.058594 19.613281 22.765625 19.613281 C 22.828125 19.613281 22.894531 19.617188 22.953125 19.621094 L 25.8125 15.441406 L 25.8125 15.382812 C 25.8125 12.871094 27.839844 10.824219 30.328125 10.824219 C 32.820312 10.824219 34.847656 12.871094 34.847656 15.382812 C 34.847656 17.898438 32.820312 19.945312 30.328125 19.945312 C 30.292969 19.945312 30.261719 19.941406 30.226562 19.941406 L 26.152344 22.875 C 26.15625 22.929688 26.15625 22.984375 26.15625 23.035156 C 26.15625 24.921875 24.636719 26.460938 22.765625 26.460938 C 21.125 26.460938 19.75 25.277344 19.441406 23.710938 L 14.847656 21.792969 C 16.269531 26.871094 20.890625 30.589844 26.375 30.589844 C 32.992188 30.589844 38.355469 25.175781 38.355469 18.5 C 38.355469 11.820312 32.992188 6.410156 26.375 6.410156 Z M 21.945312 24.753906 L 20.472656 24.140625 C 20.734375 24.6875 21.183594 25.148438 21.785156 25.398438 C 23.078125 25.945312 24.570312 25.324219 25.113281 24.015625 C 25.371094 23.382812 25.375 22.683594 25.117188 22.050781 C 24.855469 21.417969 24.367188 20.921875 23.742188 20.65625 C 23.117188 20.398438 22.449219 20.40625 21.863281 20.628906 L 23.386719 21.265625 C 24.339844 21.664062 24.792969 22.773438 24.394531 23.738281 C 23.996094 24.699219 22.898438 25.15625 21.945312 24.753906 Z M 33.339844 15.382812 C 33.339844 13.707031 31.988281 12.34375 30.328125 12.34375 C 28.667969 12.34375 27.320312 13.707031 27.320312 15.382812 C 27.320312 17.058594 28.667969 18.421875 30.328125 18.421875 C 31.988281 18.421875 33.339844 17.058594 33.339844 15.382812 Z M 28.074219 15.378906 C 28.074219 14.117188 29.085938 13.097656 30.335938 13.097656 C 31.582031 13.097656 32.597656 14.117188 32.597656 15.378906 C 32.597656 16.640625 31.582031 17.660156 30.335938 17.660156 C 29.085938 17.660156 28.074219 16.640625 28.074219 15.378906 Z M 28.074219 15.378906 " fill-opacity="1" fill-rule="nonzero"/></g><g fill="#ffffff" fill-opacity="1"><g transform="translate(43.940884, 15.769381)"><g><path d="M 0.765625 0 L 0.765625 -5.859375 L 3.109375 -5.859375 C 3.710938 -5.859375 4.171875 -5.71875 4.484375 -5.4375 C 4.796875 -5.15625 4.953125 -4.769531 4.953125 -4.28125 C 4.953125 -3.925781 4.859375 -3.632812 4.671875 -3.40625 C 4.492188 -3.175781 4.226562 -3.003906 3.875 -2.890625 L 3.875 -2.796875 C 4.050781 -2.722656 4.195312 -2.609375 4.3125 -2.453125 C 4.425781 -2.296875 4.535156 -2.0625 4.640625 -1.75 L 5.21875 0 L 4.03125 0 L 3.453125 -1.75 C 3.398438 -1.925781 3.335938 -2.0625 3.265625 -2.15625 C 3.191406 -2.257812 3.097656 -2.332031 2.984375 -2.375 C 2.867188 -2.414062 2.722656 -2.4375 2.546875 -2.4375 L 1.921875 -2.4375 L 1.921875 0 Z M 2.96875 -3.359375 C 3.53125 -3.359375 3.8125 -3.617188 3.8125 -4.140625 C 3.8125 -4.671875 3.53125 -4.9375 2.96875 -4.9375 L 1.921875 -4.9375 L 1.921875 -3.359375 Z M 2.96875 -3.359375 "/></g></g><g transform="translate(49.415377, 15.769381)"><g><path d="M 4.359375 -1.953125 L 1.53125 -1.953125 C 1.5625 -1.566406 1.671875 -1.285156 1.859375 -1.109375 C 2.046875 -0.941406 2.300781 -0.859375 2.625 -0.859375 C 2.875 -0.859375 3.078125 -0.90625 3.234375 -1 C 3.390625 -1.09375 3.515625 -1.238281 3.609375 -1.4375 L 3.703125 -1.4375 L 4.4375 -0.953125 C 4.289062 -0.648438 4.070312 -0.398438 3.78125 -0.203125 C 3.488281 -0.015625 3.101562 0.078125 2.625 0.078125 C 2.164062 0.078125 1.769531 -0.00390625 1.4375 -0.171875 C 1.101562 -0.347656 0.84375 -0.609375 0.65625 -0.953125 C 0.476562 -1.296875 0.390625 -1.710938 0.390625 -2.203125 C 0.390625 -2.703125 0.484375 -3.125 0.671875 -3.46875 C 0.867188 -3.820312 1.128906 -4.082031 1.453125 -4.25 C 1.773438 -4.414062 2.140625 -4.5 2.546875 -4.5 C 3.171875 -4.5 3.644531 -4.332031 3.96875 -4 C 4.300781 -3.675781 4.46875 -3.191406 4.46875 -2.546875 C 4.46875 -2.316406 4.460938 -2.132812 4.453125 -2 Z M 3.40625 -2.671875 C 3.394531 -3.015625 3.316406 -3.257812 3.171875 -3.40625 C 3.023438 -3.5625 2.816406 -3.640625 2.546875 -3.640625 C 1.984375 -3.640625 1.648438 -3.316406 1.546875 -2.671875 Z M 3.40625 -2.671875 "/></g></g><g transform="translate(54.217072, 15.769381)"><g><path d="M 2.296875 1.875 C 1.566406 1.875 1.023438 1.765625 0.671875 1.546875 C 0.328125 1.335938 0.15625 1.039062 0.15625 0.65625 C 0.15625 0.425781 0.226562 0.238281 0.375 0.09375 C 0.519531 -0.0507812 0.734375 -0.148438 1.015625 -0.203125 L 1.015625 -0.296875 C 0.867188 -0.378906 0.757812 -0.476562 0.6875 -0.59375 C 0.625 -0.707031 0.59375 -0.835938 0.59375 -0.984375 C 0.59375 -1.335938 0.828125 -1.578125 1.296875 -1.703125 L 1.296875 -1.78125 C 1.054688 -1.914062 0.875 -2.082031 0.75 -2.28125 C 0.632812 -2.488281 0.578125 -2.734375 0.578125 -3.015625 C 0.578125 -3.304688 0.644531 -3.5625 0.78125 -3.78125 C 0.914062 -4.007812 1.113281 -4.1875 1.375 -4.3125 C 1.632812 -4.4375 1.941406 -4.5 2.296875 -4.5 C 2.671875 -4.5 2.96875 -4.4375 3.1875 -4.3125 C 3.320312 -4.507812 3.398438 -4.738281 3.421875 -5 L 3.5 -5.046875 L 4.296875 -4.84375 C 4.273438 -4.632812 4.210938 -4.457031 4.109375 -4.3125 C 4.015625 -4.175781 3.863281 -4.050781 3.65625 -3.9375 L 3.65625 -3.84375 C 3.90625 -3.625 4.03125 -3.320312 4.03125 -2.9375 C 4.03125 -2.65625 3.960938 -2.40625 3.828125 -2.1875 C 3.691406 -1.976562 3.492188 -1.8125 3.234375 -1.6875 C 2.972656 -1.5625 2.660156 -1.5 2.296875 -1.5 L 2.140625 -1.5 C 2.023438 -1.507812 1.945312 -1.515625 1.90625 -1.515625 C 1.8125 -1.515625 1.734375 -1.484375 1.671875 -1.421875 C 1.617188 -1.367188 1.59375 -1.300781 1.59375 -1.21875 C 1.59375 -1.125 1.628906 -1.050781 1.703125 -1 C 1.773438 -0.945312 1.882812 -0.914062 2.03125 -0.90625 L 3.015625 -0.875 C 3.992188 -0.84375 4.484375 -0.421875 4.484375 0.390625 C 4.484375 0.671875 4.410156 0.921875 4.265625 1.140625 C 4.117188 1.367188 3.878906 1.546875 3.546875 1.671875 C 3.222656 1.804688 2.804688 1.875 2.296875 1.875 Z M 2.296875 -2.28125 C 2.515625 -2.28125 2.679688 -2.34375 2.796875 -2.46875 C 2.921875 -2.59375 2.984375 -2.769531 2.984375 -3 C 2.984375 -3.226562 2.921875 -3.40625 2.796875 -3.53125 C 2.679688 -3.65625 2.515625 -3.71875 2.296875 -3.71875 C 2.085938 -3.71875 1.921875 -3.65625 1.796875 -3.53125 C 1.679688 -3.40625 1.625 -3.226562 1.625 -3 C 1.625 -2.757812 1.679688 -2.578125 1.796875 -2.453125 C 1.921875 -2.335938 2.085938 -2.28125 2.296875 -2.28125 Z M 2.296875 1.0625 C 2.671875 1.0625 2.941406 1.007812 3.109375 0.90625 C 3.285156 0.800781 3.375 0.664062 3.375 0.5 C 3.375 0.351562 3.328125 0.25 3.234375 0.1875 C 3.148438 0.125 3.015625 0.0859375 2.828125 0.078125 L 1.953125 0.046875 C 1.921875 0.046875 1.890625 0.0390625 1.859375 0.03125 C 1.835938 0.03125 1.816406 0.03125 1.796875 0.03125 C 1.609375 0.03125 1.460938 0.0664062 1.359375 0.140625 C 1.265625 0.222656 1.21875 0.335938 1.21875 0.484375 C 1.21875 0.671875 1.304688 0.8125 1.484375 0.90625 C 1.671875 1.007812 1.941406 1.0625 2.296875 1.0625 Z M 2.296875 1.0625 "/></g></g><g transform="translate(58.81052, 15.769381)"><g><path d="M 1.1875 -4.953125 C 0.988281 -4.953125 0.828125 -5.007812 0.703125 -5.125 C 0.578125 -5.25 0.515625 -5.40625 0.515625 -5.59375 C 0.515625 -5.789062 0.578125 -5.945312 0.703125 -6.0625 C 0.828125 -6.1875 0.988281 -6.25 1.1875 -6.25 C 1.320312 -6.25 1.441406 -6.21875 1.546875 -6.15625 C 1.648438 -6.101562 1.726562 -6.023438 1.78125 -5.921875 C 1.84375 -5.828125 1.875 -5.71875 1.875 -5.59375 C 1.875 -5.46875 1.84375 -5.351562 1.78125 -5.25 C 1.726562 -5.15625 1.648438 -5.082031 1.546875 -5.03125 C 1.441406 -4.976562 1.320312 -4.953125 1.1875 -4.953125 Z M 0.640625 0 L 0.640625 -4.421875 L 1.75 -4.421875 L 1.75 0 Z M 0.640625 0 "/></g></g><g transform="translate(61.189341, 15.769381)"><g><path d="M 2.0625 0.078125 C 1.757812 0.078125 1.484375 0.046875 1.234375 -0.015625 C 0.984375 -0.0859375 0.769531 -0.1875 0.59375 -0.3125 C 0.414062 -0.4375 0.285156 -0.578125 0.203125 -0.734375 L 0.8125 -1.40625 L 0.90625 -1.40625 C 1.050781 -1.207031 1.222656 -1.054688 1.421875 -0.953125 C 1.617188 -0.859375 1.835938 -0.8125 2.078125 -0.8125 C 2.296875 -0.8125 2.457031 -0.847656 2.5625 -0.921875 C 2.675781 -1.003906 2.734375 -1.117188 2.734375 -1.265625 C 2.734375 -1.378906 2.691406 -1.472656 2.609375 -1.546875 C 2.523438 -1.617188 2.398438 -1.675781 2.234375 -1.71875 L 1.640625 -1.859375 C 1.203125 -1.960938 0.878906 -2.117188 0.671875 -2.328125 C 0.472656 -2.546875 0.375 -2.820312 0.375 -3.15625 C 0.375 -3.4375 0.441406 -3.675781 0.578125 -3.875 C 0.722656 -4.082031 0.921875 -4.238281 1.171875 -4.34375 C 1.429688 -4.445312 1.734375 -4.5 2.078125 -4.5 C 2.472656 -4.5 2.800781 -4.441406 3.0625 -4.328125 C 3.320312 -4.210938 3.523438 -4.0625 3.671875 -3.875 L 3.078125 -3.234375 L 3 -3.234375 C 2.875 -3.367188 2.734375 -3.46875 2.578125 -3.53125 C 2.429688 -3.59375 2.265625 -3.625 2.078125 -3.625 C 1.640625 -3.625 1.421875 -3.488281 1.421875 -3.21875 C 1.421875 -3.101562 1.457031 -3.007812 1.53125 -2.9375 C 1.613281 -2.863281 1.757812 -2.804688 1.96875 -2.765625 L 2.515625 -2.640625 C 2.960938 -2.546875 3.289062 -2.390625 3.5 -2.171875 C 3.707031 -1.960938 3.8125 -1.679688 3.8125 -1.328125 C 3.8125 -1.046875 3.738281 -0.796875 3.59375 -0.578125 C 3.457031 -0.367188 3.257812 -0.207031 3 -0.09375 C 2.738281 0.0195312 2.425781 0.078125 2.0625 0.078125 Z M 2.0625 0.078125 "/></g></g><g transform="translate(65.262172, 15.769381)"><g><path d="M 3.046875 -1.046875 L 3.34375 -0.234375 C 3.21875 -0.128906 3.0625 -0.0507812 2.875 0 C 2.695312 0.0507812 2.492188 0.078125 2.265625 0.078125 C 1.785156 0.078125 1.421875 -0.0507812 1.171875 -0.3125 C 0.929688 -0.570312 0.8125 -0.945312 0.8125 -1.4375 L 0.8125 -3.546875 L 0.125 -3.546875 L 0.125 -4.421875 L 0.8125 -4.421875 L 0.8125 -5.28125 L 1.921875 -5.46875 L 1.921875 -4.421875 L 3.171875 -4.421875 L 3.171875 -3.546875 L 1.921875 -3.546875 L 1.921875 -1.515625 C 1.921875 -1.296875 1.960938 -1.132812 2.046875 -1.03125 C 2.140625 -0.9375 2.273438 -0.890625 2.453125 -0.890625 C 2.648438 -0.890625 2.820312 -0.941406 2.96875 -1.046875 Z M 3.046875 -1.046875 "/></g></g><g transform="translate(68.694242, 15.769381)"><g><path d="M 4.359375 -1.953125 L 1.53125 -1.953125 C 1.5625 -1.566406 1.671875 -1.285156 1.859375 -1.109375 C 2.046875 -0.941406 2.300781 -0.859375 2.625 -0.859375 C 2.875 -0.859375 3.078125 -0.90625 3.234375 -1 C 3.390625 -1.09375 3.515625 -1.238281 3.609375 -1.4375 L 3.703125 -1.4375 L 4.4375 -0.953125 C 4.289062 -0.648438 4.070312 -0.398438 3.78125 -0.203125 C 3.488281 -0.015625 3.101562 0.078125 2.625 0.078125 C 2.164062 0.078125 1.769531 -0.00390625 1.4375 -0.171875 C 1.101562 -0.347656 0.84375 -0.609375 0.65625 -0.953125 C 0.476562 -1.296875 0.390625 -1.710938 0.390625 -2.203125 C 0.390625 -2.703125 0.484375 -3.125 0.671875 -3.46875 C 0.867188 -3.820312 1.128906 -4.082031 1.453125 -4.25 C 1.773438 -4.414062 2.140625 -4.5 2.546875 -4.5 C 3.171875 -4.5 3.644531 -4.332031 3.96875 -4 C 4.300781 -3.675781 4.46875 -3.191406 4.46875 -2.546875 C 4.46875 -2.316406 4.460938 -2.132812 4.453125 -2 Z M 3.40625 -2.671875 C 3.394531 -3.015625 3.316406 -3.257812 3.171875 -3.40625 C 3.023438 -3.5625 2.816406 -3.640625 2.546875 -3.640625 C 1.984375 -3.640625 1.648438 -3.316406 1.546875 -2.671875 Z M 3.40625 -2.671875 "/></g></g><g transform="translate(73.495938, 15.769381)"><g><path d="M 0.640625 0 L 0.640625 -4.421875 L 1.71875 -4.421875 L 1.71875 -3.765625 L 1.796875 -3.75 C 1.898438 -3.988281 2.039062 -4.164062 2.21875 -4.28125 C 2.394531 -4.394531 2.609375 -4.453125 2.859375 -4.453125 C 3.109375 -4.453125 3.296875 -4.410156 3.421875 -4.328125 L 3.234375 -3.375 L 3.15625 -3.359375 C 3.082031 -3.390625 3.007812 -3.410156 2.9375 -3.421875 C 2.875 -3.429688 2.796875 -3.4375 2.703125 -3.4375 C 2.390625 -3.4375 2.148438 -3.328125 1.984375 -3.109375 C 1.828125 -2.890625 1.75 -2.539062 1.75 -2.0625 L 1.75 0 Z M 0.640625 0 "/></g></g><g transform="translate(76.960046, 15.769381)"><g/></g><g transform="translate(78.89434, 15.769381)"><g><path d="M 2.5625 0.078125 C 2.132812 0.078125 1.753906 -0.0078125 1.421875 -0.1875 C 1.097656 -0.363281 0.84375 -0.625 0.65625 -0.96875 C 0.476562 -1.3125 0.390625 -1.722656 0.390625 -2.203125 C 0.390625 -2.691406 0.476562 -3.109375 0.65625 -3.453125 C 0.84375 -3.796875 1.097656 -4.054688 1.421875 -4.234375 C 1.753906 -4.410156 2.132812 -4.5 2.5625 -4.5 C 3 -4.5 3.378906 -4.410156 3.703125 -4.234375 C 4.035156 -4.054688 4.289062 -3.796875 4.46875 -3.453125 C 4.65625 -3.109375 4.75 -2.691406 4.75 -2.203125 C 4.75 -1.722656 4.65625 -1.3125 4.46875 -0.96875 C 4.289062 -0.625 4.035156 -0.363281 3.703125 -0.1875 C 3.378906 -0.0078125 3 0.078125 2.5625 0.078125 Z M 2.5625 -0.859375 C 3.25 -0.859375 3.59375 -1.304688 3.59375 -2.203125 C 3.59375 -2.671875 3.503906 -3.015625 3.328125 -3.234375 C 3.148438 -3.453125 2.894531 -3.5625 2.5625 -3.5625 C 1.875 -3.5625 1.53125 -3.109375 1.53125 -2.203125 C 1.53125 -1.304688 1.875 -0.859375 2.5625 -0.859375 Z M 2.5625 -0.859375 "/></g></g><g transform="translate(84.02843, 15.769381)"><g><path d="M 0.640625 0 L 0.640625 -4.421875 L 1.703125 -4.421875 L 1.703125 -3.765625 L 1.78125 -3.75 C 2.0625 -4.25 2.507812 -4.5 3.125 -4.5 C 3.632812 -4.5 4.007812 -4.359375 4.25 -4.078125 C 4.488281 -3.804688 4.609375 -3.40625 4.609375 -2.875 L 4.609375 0 L 3.5 0 L 3.5 -2.734375 C 3.5 -3.023438 3.4375 -3.234375 3.3125 -3.359375 C 3.195312 -3.492188 3.007812 -3.5625 2.75 -3.5625 C 2.4375 -3.5625 2.191406 -3.457031 2.015625 -3.25 C 1.835938 -3.050781 1.75 -2.726562 1.75 -2.28125 L 1.75 0 Z M 0.640625 0 "/></g></g></g><g fill="#ffffff" fill-opacity="1"><g transform="translate(53.787229, 26.705017)"><g><path d="M 2.59375 0.078125 C 2.1875 0.078125 1.820312 0.03125 1.5 -0.0625 C 1.1875 -0.164062 0.925781 -0.296875 0.71875 -0.453125 C 0.507812 -0.617188 0.347656 -0.800781 0.234375 -1 L 0.875 -1.78125 L 0.96875 -1.78125 C 1.144531 -1.507812 1.367188 -1.296875 1.640625 -1.140625 C 1.910156 -0.992188 2.226562 -0.921875 2.59375 -0.921875 C 2.90625 -0.921875 3.140625 -0.984375 3.296875 -1.109375 C 3.453125 -1.242188 3.53125 -1.425781 3.53125 -1.65625 C 3.53125 -1.789062 3.503906 -1.90625 3.453125 -2 C 3.398438 -2.09375 3.316406 -2.171875 3.203125 -2.234375 C 3.085938 -2.304688 2.929688 -2.367188 2.734375 -2.421875 L 1.96875 -2.59375 C 1.445312 -2.707031 1.054688 -2.90625 0.796875 -3.1875 C 0.535156 -3.46875 0.40625 -3.832031 0.40625 -4.28125 C 0.40625 -4.601562 0.488281 -4.890625 0.65625 -5.140625 C 0.820312 -5.398438 1.0625 -5.597656 1.375 -5.734375 C 1.695312 -5.867188 2.078125 -5.9375 2.515625 -5.9375 C 2.972656 -5.9375 3.359375 -5.875 3.671875 -5.75 C 3.992188 -5.632812 4.269531 -5.457031 4.5 -5.21875 L 3.921875 -4.4375 L 3.828125 -4.4375 C 3.660156 -4.601562 3.46875 -4.726562 3.25 -4.8125 C 3.039062 -4.90625 2.796875 -4.953125 2.515625 -4.953125 C 2.203125 -4.953125 1.960938 -4.894531 1.796875 -4.78125 C 1.628906 -4.664062 1.546875 -4.507812 1.546875 -4.3125 C 1.546875 -4.132812 1.601562 -3.988281 1.71875 -3.875 C 1.832031 -3.769531 2.035156 -3.6875 2.328125 -3.625 L 3.09375 -3.453125 C 3.664062 -3.335938 4.078125 -3.132812 4.328125 -2.84375 C 4.585938 -2.5625 4.71875 -2.1875 4.71875 -1.71875 C 4.71875 -1.351562 4.632812 -1.035156 4.46875 -0.765625 C 4.3125 -0.492188 4.070312 -0.285156 3.75 -0.140625 C 3.4375 0.00390625 3.050781 0.078125 2.59375 0.078125 Z M 2.59375 0.078125 "/></g></g><g transform="translate(58.817194, 26.705017)"><g><path d="M 3.046875 -1.046875 L 3.34375 -0.234375 C 3.21875 -0.128906 3.0625 -0.0507812 2.875 0 C 2.695312 0.0507812 2.492188 0.078125 2.265625 0.078125 C 1.785156 0.078125 1.421875 -0.0507812 1.171875 -0.3125 C 0.929688 -0.570312 0.8125 -0.945312 0.8125 -1.4375 L 0.8125 -3.546875 L 0.125 -3.546875 L 0.125 -4.421875 L 0.8125 -4.421875 L 0.8125 -5.28125 L 1.921875 -5.46875 L 1.921875 -4.421875 L 3.171875 -4.421875 L 3.171875 -3.546875 L 1.921875 -3.546875 L 1.921875 -1.515625 C 1.921875 -1.296875 1.960938 -1.132812 2.046875 -1.03125 C 2.140625 -0.9375 2.273438 -0.890625 2.453125 -0.890625 C 2.648438 -0.890625 2.820312 -0.941406 2.96875 -1.046875 Z M 3.046875 -1.046875 "/></g></g><g transform="translate(62.249265, 26.705017)"><g><path d="M 4.359375 -1.953125 L 1.53125 -1.953125 C 1.5625 -1.566406 1.671875 -1.285156 1.859375 -1.109375 C 2.046875 -0.941406 2.300781 -0.859375 2.625 -0.859375 C 2.875 -0.859375 3.078125 -0.90625 3.234375 -1 C 3.390625 -1.09375 3.515625 -1.238281 3.609375 -1.4375 L 3.703125 -1.4375 L 4.4375 -0.953125 C 4.289062 -0.648438 4.070312 -0.398438 3.78125 -0.203125 C 3.488281 -0.015625 3.101562 0.078125 2.625 0.078125 C 2.164062 0.078125 1.769531 -0.00390625 1.4375 -0.171875 C 1.101562 -0.347656 0.84375 -0.609375 0.65625 -0.953125 C 0.476562 -1.296875 0.390625 -1.710938 0.390625 -2.203125 C 0.390625 -2.703125 0.484375 -3.125 0.671875 -3.46875 C 0.867188 -3.820312 1.128906 -4.082031 1.453125 -4.25 C 1.773438 -4.414062 2.140625 -4.5 2.546875 -4.5 C 3.171875 -4.5 3.644531 -4.332031 3.96875 -4 C 4.300781 -3.675781 4.46875 -3.191406 4.46875 -2.546875 C 4.46875 -2.316406 4.460938 -2.132812 4.453125 -2 Z M 3.40625 -2.671875 C 3.394531 -3.015625 3.316406 -3.257812 3.171875 -3.40625 C 3.023438 -3.5625 2.816406 -3.640625 2.546875 -3.640625 C 1.984375 -3.640625 1.648438 -3.316406 1.546875 -2.671875 Z M 3.40625 -2.671875 "/></g></g><g transform="translate(67.05096, 26.705017)"><g><path d="M 1.71875 0.078125 C 1.4375 0.078125 1.191406 0.0234375 0.984375 -0.078125 C 0.773438 -0.179688 0.613281 -0.332031 0.5 -0.53125 C 0.394531 -0.726562 0.34375 -0.96875 0.34375 -1.25 C 0.34375 -1.519531 0.394531 -1.742188 0.5 -1.921875 C 0.613281 -2.097656 0.785156 -2.238281 1.015625 -2.34375 C 1.253906 -2.457031 1.566406 -2.546875 1.953125 -2.609375 C 2.210938 -2.648438 2.410156 -2.695312 2.546875 -2.75 C 2.679688 -2.800781 2.773438 -2.859375 2.828125 -2.921875 C 2.878906 -2.992188 2.90625 -3.078125 2.90625 -3.171875 C 2.90625 -3.316406 2.851562 -3.425781 2.75 -3.5 C 2.65625 -3.570312 2.492188 -3.609375 2.265625 -3.609375 C 2.015625 -3.609375 1.773438 -3.550781 1.546875 -3.4375 C 1.328125 -3.332031 1.140625 -3.191406 0.984375 -3.015625 L 0.90625 -3.015625 L 0.4375 -3.71875 C 0.65625 -3.957031 0.925781 -4.144531 1.25 -4.28125 C 1.582031 -4.425781 1.9375 -4.5 2.3125 -4.5 C 2.894531 -4.5 3.316406 -4.375 3.578125 -4.125 C 3.847656 -3.875 3.984375 -3.523438 3.984375 -3.078125 L 3.984375 -1.15625 C 3.984375 -0.957031 4.066406 -0.859375 4.234375 -0.859375 C 4.304688 -0.859375 4.375 -0.867188 4.4375 -0.890625 L 4.484375 -0.875 L 4.5625 -0.109375 C 4.507812 -0.0664062 4.425781 -0.03125 4.3125 0 C 4.207031 0.0195312 4.085938 0.03125 3.953125 0.03125 C 3.691406 0.03125 3.484375 -0.015625 3.328125 -0.109375 C 3.179688 -0.210938 3.078125 -0.375 3.015625 -0.59375 L 2.9375 -0.609375 C 2.71875 -0.148438 2.3125 0.078125 1.71875 0.078125 Z M 2.078125 -0.75 C 2.328125 -0.75 2.53125 -0.832031 2.6875 -1 C 2.84375 -1.175781 2.921875 -1.414062 2.921875 -1.71875 L 2.921875 -2.171875 L 2.84375 -2.1875 C 2.78125 -2.132812 2.691406 -2.085938 2.578125 -2.046875 C 2.472656 -2.015625 2.316406 -1.984375 2.109375 -1.953125 C 1.867188 -1.910156 1.695312 -1.835938 1.59375 -1.734375 C 1.488281 -1.640625 1.4375 -1.503906 1.4375 -1.328125 C 1.4375 -1.140625 1.492188 -0.992188 1.609375 -0.890625 C 1.722656 -0.796875 1.878906 -0.75 2.078125 -0.75 Z M 2.078125 -0.75 "/></g></g><g transform="translate(71.708484, 26.705017)"><g><path d="M 0.640625 0 L 0.640625 -4.421875 L 1.703125 -4.421875 L 1.703125 -3.828125 L 1.78125 -3.8125 C 1.925781 -4.050781 2.09375 -4.222656 2.28125 -4.328125 C 2.476562 -4.441406 2.726562 -4.5 3.03125 -4.5 C 3.363281 -4.5 3.628906 -4.429688 3.828125 -4.296875 C 4.035156 -4.171875 4.1875 -3.976562 4.28125 -3.71875 L 4.375 -3.71875 C 4.507812 -3.988281 4.679688 -4.1875 4.890625 -4.3125 C 5.109375 -4.4375 5.378906 -4.5 5.703125 -4.5 C 6.617188 -4.5 7.078125 -3.988281 7.078125 -2.96875 L 7.078125 0 L 5.96875 0 L 5.96875 -2.828125 C 5.96875 -3.085938 5.914062 -3.273438 5.8125 -3.390625 C 5.707031 -3.503906 5.546875 -3.5625 5.328125 -3.5625 C 4.710938 -3.5625 4.40625 -3.15625 4.40625 -2.34375 L 4.40625 0 L 3.296875 0 L 3.296875 -2.828125 C 3.296875 -3.085938 3.242188 -3.273438 3.140625 -3.390625 C 3.035156 -3.503906 2.875 -3.5625 2.65625 -3.5625 C 2.375 -3.5625 2.148438 -3.460938 1.984375 -3.265625 C 1.828125 -3.078125 1.75 -2.78125 1.75 -2.375 L 1.75 0 Z M 0.640625 0 "/></g></g></g></svg>